<svg width="24" height="24" viewBox="0 0 24 24" fill="none" xmlns="http://www.w3.org/2000/svg">
<path d="M6.05501 4.64005L5.665 4.25005C5.275 3.86005 4.64501 3.87005 4.26501 4.25005L4.255 4.26005C3.865 4.65005 3.865 5.28005 4.255 5.66005L4.645 6.05005C5.035 6.44005 5.655 6.44005 6.045 6.05005L6.05501 6.04005C6.44501 5.66005 6.44501 5.02005 6.05501 4.64005ZM3.015 11H1.995C1.445 11 1.005 11.44 1.005 11.99V12C1.005 12.55 1.445 12.99 1.995 12.99H3.005C3.565 13 4.005 12.56 4.005 12.01V12C4.005 11.44 3.565 11 3.015 11ZM12.015 1.05005H12.005C11.445 1.05005 11.005 1.49005 11.005 2.04005V3.00005C11.005 3.55005 11.445 3.99005 11.995 3.99005H12.005C12.565 4.00005 13.005 3.56005 13.005 3.01005V2.04005C13.005 1.49005 12.565 1.05005 12.015 1.05005ZM19.755 4.26005C19.365 3.87005 18.735 3.87005 18.345 4.25005L17.955 4.64005C17.565 5.03005 17.565 5.66005 17.955 6.04005L17.965 6.05005C18.355 6.44005 18.985 6.44005 19.365 6.05005L19.755 5.66005C20.145 5.27005 20.145 4.65005 19.755 4.26005ZM17.945 19.3601L18.335 19.75C18.725 20.14 19.355 20.14 19.745 19.75C20.135 19.36 20.135 18.73 19.745 18.34L19.355 17.9501C18.965 17.5601 18.335 17.5701 17.955 17.9501C17.555 18.3501 17.555 18.9701 17.945 19.3601ZM20.005 11.99V12C20.005 12.55 20.445 12.99 20.995 12.99H22.005C22.555 12.99 22.995 12.55 22.995 12V11.99C22.995 11.44 22.555 11 22.005 11H20.995C20.445 11 20.005 11.44 20.005 11.99ZM12.005 6.00005C8.695 6.00005 6.005 8.69005 6.005 12C6.005 15.31 8.695 18 12.005 18C15.315 18 18.005 15.31 18.005 12C18.005 8.69005 15.315 6.00005 12.005 6.00005ZM11.995 22.9501H12.005C12.555 22.9501 12.995 22.51 12.995 21.96V21C12.995 20.45 12.555 20.01 12.005 20.01H11.995C11.445 20.01 11.005 20.45 11.005 21V21.96C11.005 22.51 11.445 22.9501 11.995 22.9501ZM4.255 19.74C4.645 20.13 5.275 20.13 5.665 19.74L6.05501 19.35C6.44501 18.96 6.43501 18.3301 6.05501 17.9501L6.045 17.9401C5.655 17.5501 5.025 17.5501 4.635 17.9401L4.245 18.33C3.865 18.73 3.865 19.35 4.255 19.74Z" fill="black"/>
</svg>
