<svg width="24" height="24" viewBox="0 0 24 24" fill="none" xmlns="http://www.w3.org/2000/svg">
<path d="M11.0402 5.5C11.5169 5.5 11.9273 5.83646 12.0208 6.30388L12.0992 6.69612C12.1927 7.16354 12.6031 7.5 13.0798 7.5H16.5C17.0523 7.5 17.5 7.94772 17.5 8.5V12.5C17.5 13.0523 17.0523 13.5 16.5 13.5H14.9598C14.4831 13.5 14.0727 13.1635 13.9792 12.6961L13.9008 12.3039C13.8073 11.8365 13.3969 11.5 12.9202 11.5H7.5C6.94771 11.5 6.5 11.0523 6.5 10.5V6.5C6.5 5.94772 6.94772 5.5 7.5 5.5H11.0402ZM13.6608 4.30388C13.5673 3.83646 13.1569 3.5 12.6802 3.5H5.5C4.94772 3.5 4.5 3.94772 4.5 4.5V19.5C4.5 20.0523 4.94772 20.5 5.5 20.5V20.5C6.05228 20.5 6.5 20.0523 6.5 19.5V13.5H12.1L12.3392 14.6961C12.4327 15.1635 12.8431 15.5 13.3198 15.5H18.5C19.0523 15.5 19.5 15.0523 19.5 14.5V6.5C19.5 5.94772 19.0523 5.5 18.5 5.5H13.9L13.6608 4.30388Z" fill="black"/>
</svg>
